<svg xmlns="http://www.w3.org/2000/svg" width="480" height="550" viewBox="0 0 480 550">
<rect width="100%" height="100%" fill="white"/>
<text x="240.0" y="32" text-anchor="middle" font-family="Arial" font-size="18" font-weight="700">Naive Bayes Sentiment Confusion Matrix</text>
<text x="285.0" y="90" text-anchor="middle" font-family="Arial" font-size="14">Predicted label</text>
<text x="20" y="345.0" text-anchor="middle" font-family="Arial" font-size="14" transform="rotate(-90 20 345.0)">True label</text>
<text x="175.0" y="160" text-anchor="middle" font-family="Arial" font-size="13">negative</text>
<text x="285.0" y="160" text-anchor="middle" font-family="Arial" font-size="13">neutral</text>
<text x="395.0" y="160" text-anchor="middle" font-family="Arial" font-size="13">positive</text>
<text x="105" y="240.0" text-anchor="end" font-family="Arial" font-size="13">negative</text>
<text x="105" y="350.0" text-anchor="end" font-family="Arial" font-size="13">neutral</text>
<text x="105" y="460.0" text-anchor="end" font-family="Arial" font-size="13">positive</text>
<rect x="120" y="180" width="110" height="110" fill="rgb(214,219,255)" stroke="#d0d7de"/>
<text x="175.0" y="241.0" text-anchor="middle" font-family="Arial" font-size="18" font-weight="700" fill="#111827">1753</text>
<rect x="230" y="180" width="110" height="110" fill="rgb(228,233,255)" stroke="#d0d7de"/>
<text x="285.0" y="241.0" text-anchor="middle" font-family="Arial" font-size="18" font-weight="700" fill="#111827">916</text>
<rect x="340" y="180" width="110" height="110" fill="rgb(243,248,255)" stroke="#d0d7de"/>
<text x="395.0" y="241.0" text-anchor="middle" font-family="Arial" font-size="18" font-weight="700" fill="#111827">78</text>
<rect x="120" y="290" width="110" height="110" fill="rgb(242,247,255)" stroke="#d0d7de"/>
<text x="175.0" y="351.0" text-anchor="middle" font-family="Arial" font-size="18" font-weight="700" fill="#111827">157</text>
<rect x="230" y="290" width="110" height="110" fill="rgb(95,100,255)" stroke="#d0d7de"/>
<text x="285.0" y="351.0" text-anchor="middle" font-family="Arial" font-size="18" font-weight="700" fill="#111827">8490</text>
<rect x="340" y="290" width="110" height="110" fill="rgb(227,232,255)" stroke="#d0d7de"/>
<text x="395.0" y="351.0" text-anchor="middle" font-family="Arial" font-size="18" font-weight="700" fill="#111827">978</text>
<rect x="120" y="400" width="110" height="110" fill="rgb(244,249,255)" stroke="#d0d7de"/>
<text x="175.0" y="461.0" text-anchor="middle" font-family="Arial" font-size="18" font-weight="700" fill="#111827">28</text>
<rect x="230" y="400" width="110" height="110" fill="rgb(190,195,255)" stroke="#d0d7de"/>
<text x="285.0" y="461.0" text-anchor="middle" font-family="Arial" font-size="18" font-weight="700" fill="#111827">3073</text>
<rect x="340" y="400" width="110" height="110" fill="rgb(187,192,255)" stroke="#d0d7de"/>
<text x="395.0" y="461.0" text-anchor="middle" font-family="Arial" font-size="18" font-weight="700" fill="#111827">3252</text>
</svg>