<svg xmlns="http://www.w3.org/2000/svg" width="480" height="550" viewBox="0 0 480 550">
<rect width="100%" height="100%" fill="white"/>
<text x="240.0" y="32" text-anchor="middle" font-family="Arial" font-size="18" font-weight="700">Random Forest Sentiment Confusion Matrix</text>
<text x="285.0" y="90" text-anchor="middle" font-family="Arial" font-size="14">Predicted label</text>
<text x="20" y="345.0" text-anchor="middle" font-family="Arial" font-size="14" transform="rotate(-90 20 345.0)">True label</text>
<text x="175.0" y="160" text-anchor="middle" font-family="Arial" font-size="13">negative</text>
<text x="285.0" y="160" text-anchor="middle" font-family="Arial" font-size="13">neutral</text>
<text x="395.0" y="160" text-anchor="middle" font-family="Arial" font-size="13">positive</text>
<text x="105" y="240.0" text-anchor="end" font-family="Arial" font-size="13">negative</text>
<text x="105" y="350.0" text-anchor="end" font-family="Arial" font-size="13">neutral</text>
<text x="105" y="460.0" text-anchor="end" font-family="Arial" font-size="13">positive</text>
<rect x="120" y="180" width="110" height="110" fill="rgb(255,200,219)" stroke="#d0d7de"/>
<text x="175.0" y="241.0" text-anchor="middle" font-family="Arial" font-size="18" font-weight="700" fill="#111827">961</text>
<rect x="230" y="180" width="110" height="110" fill="rgb(255,229,236)" stroke="#d0d7de"/>
<text x="285.0" y="241.0" text-anchor="middle" font-family="Arial" font-size="18" font-weight="700" fill="#111827">339</text>
<rect x="340" y="180" width="110" height="110" fill="rgb(255,241,243)" stroke="#d0d7de"/>
<text x="395.0" y="241.0" text-anchor="middle" font-family="Arial" font-size="18" font-weight="700" fill="#111827">75</text>
<rect x="120" y="290" width="110" height="110" fill="rgb(255,237,240)" stroke="#d0d7de"/>
<text x="175.0" y="351.0" text-anchor="middle" font-family="Arial" font-size="18" font-weight="700" fill="#111827">153</text>
<rect x="230" y="290" width="110" height="110" fill="rgb(255,60,140)" stroke="#d0d7de"/>
<text x="285.0" y="351.0" text-anchor="middle" font-family="Arial" font-size="18" font-weight="700" fill="#111827">3957</text>
<rect x="340" y="290" width="110" height="110" fill="rgb(255,212,226)" stroke="#d0d7de"/>
<text x="395.0" y="351.0" text-anchor="middle" font-family="Arial" font-size="18" font-weight="700" fill="#111827">703</text>
<rect x="120" y="400" width="110" height="110" fill="rgb(255,242,243)" stroke="#d0d7de"/>
<text x="175.0" y="461.0" text-anchor="middle" font-family="Arial" font-size="18" font-weight="700" fill="#111827">54</text>
<rect x="230" y="400" width="110" height="110" fill="rgb(255,168,201)" stroke="#d0d7de"/>
<text x="285.0" y="461.0" text-anchor="middle" font-family="Arial" font-size="18" font-weight="700" fill="#111827">1633</text>
<rect x="340" y="400" width="110" height="110" fill="rgb(255,110,168)" stroke="#d0d7de"/>
<text x="395.0" y="461.0" text-anchor="middle" font-family="Arial" font-size="18" font-weight="700" fill="#111827">2880</text>
</svg>